<svg width="81" height="965" viewBox="0 0 81 965" fill="none" xmlns="http://www.w3.org/2000/svg">
<path d="M60.0246 17C51.5611 17 46.0676 45.613 43.1227 56.3462C35.3277 84.7562 31.7936 113.611 35.44 144.621C36.5597 154.143 41.6596 164.223 43.8056 173.514C45.9223 182.678 47.6869 192.268 50.8054 200.519C57.5974 218.489 58.2356 242.126 60.3661 262.66C62.7483 285.62 66.0987 313.582 62.2441 336.997C58.955 356.976 51.9543 376.062 45.4275 393.33C37.2565 414.948 34.2246 439.598 31.684 464.908C28.4238 497.387 22.3798 534.187 27.0744 567.266C33.8836 615.246 53.8785 657.034 53.8785 707.519C53.8785 753.977 49.6887 797.856 33.0498 836.447C16.5138 874.799 17.0015 919.887 17.0015 965.084C17.0015 974.924 18.2973 997.268 22.294 1004.87C24.9349 1009.89 30.8304 1024.2 30.8304 1031" stroke="#466647" stroke-width="34" stroke-linecap="round"/>
</svg>
